# xmcd
#
# Track frame offsets:
#	150
#	16875
#	32475
#	48150
#	64500
#	83175
#	102525
#	114375
#	128925
#	147750
#	164775
#	179775
#	200175
#	213675
#	234225
#
# Disc length: 3335 seconds
#
# Revision: 0
# Processed by: cddbd v1.5.1PL0 Copyright (c) Steve Scherf et al.
# Submitted via: dBpowerAMP V4.0
#
DISCID=da0d050f
DTITLE=Foret Tradition - Lost in the Fifties
DYEAR=1900
DGENRE=Swamp Pop
TTITLE0=Teenage Love
TTITLE1=Last Chance
TTITLE2=Done Got Over
TTITLE3=I Cried
TTITLE4=Cry To Me
TTITLE5=Lost in the Fifties
TTITLE6=I'm Going to be a Wheel
TTITLE7=Why Can't You
TTITLE8=Whiskey Heaven
TTITLE9=All These Things
TTITLE10=Big Bayou
TTITLE11=Please Don't Leave Me
TTITLE12=Teeny Weeny Bit
TTITLE13=Unchained Melody
TTITLE14=Go On Fool
EXTD=
EXTT0=
EXTT1=
EXTT2=
EXTT3=
EXTT4=
EXTT5=
EXTT6=
EXTT7=
EXTT8=
EXTT9=
EXTT10=
EXTT11=
EXTT12=
EXTT13=
EXTT14=
PLAYORDER=
